<svg xmlns="http://www.w3.org/2000/svg" xml:space="preserve" viewBox="0 0 341.4 349.9">
  <g>
    <path fill="#5a8216" d="M331.9 129.3c-1.3-4.3-4.2-6.6-9.1-7.2-1.8-.2-3.5-.4-5-.2-4.4.6-8.8 1.2-13.3 1.8-5.6.8-11.4 1.6-17.1 2.2-4.4.5-8.8.9-13.5 1.2-2.1.2-4.3.3-6.5.5l-2.9.2.5-2.8c.1-.8.3-1.6.4-2.3.3-1.5.5-2.9.8-4.4l3.3-14.7c2.3-10.4 4.8-21.1 7-31.7.7-3.4 1-7 .7-10.4-.4-5.2-3.2-8.8-8.1-10.5-4.7-1.6-8.9-.2-11.9 3.8-2 2.7-3.4 6.2-4.5 9.2-7.1 19.4-14.5 40.3-22.9 63.8-1.4 3.8-3.7 5.8-7.5 6.3-5.4.8-10.9 1.7-16.2 2.6-3.8.6-7.7 1.3-11.5 1.9-4.1.6-8.3 1.2-12.3 1.7-3.3.4-6.7.9-10 1.4-3.2.5-5.6 1.7-6.9 3.4-1.1 1.5-1.4 3.5-1 5.8.7 3.7 2.9 6.2 6.3 6.9 6.5 1.4 11.7 2 16.3 1.9 6.4-.2 12.8-.8 19.5-1.5 2.9-.3 5.8-.6 8.8-.8l2.9-.3-.5 2.9c-.2.9-.3 1.7-.4 2.3-.2 1.1-.3 1.8-.6 2.6-3.2 9.1-6.4 18.2-9.6 27.4-8.2 23.4-13.1 50.7-23.5 73.7-9.6 21.1-15.6 30.3-27.9 45.3-5.2 6.4-8.1 6.5-10.2 6-4.9-1.2-2.8-23.4-2.7-32.8.2-12.9.4-25.8.5-38.7 0-1.7 0-3.5.1-5.2.2-14.5.4-29.5-2.7-44-2.1-9.6-6.7-17.1-12.8-20.9-4.4-2.7-9.4-3.5-14.6-2.2-5.1 1.3-10.6 4-16.8 8.3-1.9 1.3-3.5 2.4-4.9 3.4-9.1 6.3-50.3 59.2-50.3 59.2l18.5-80.9c10-43.5 19.9-87 29.9-130.6 1.9-8.4 3.3-16 4.3-23.2.6-4.5-2.2-8.4-5.2-9.4-3.6-1.1-6.9.7-9 4.8-1 1.9-1.8 4.2-2.7 7-1.2 4-2.5 8-3.8 12-3.5 11.2-7.2 22.8-10.4 34.2-18 63-32.2 128.2-46 191.2-3.7 17.1-7.6 34.8-11.5 52.1-1.8 8-3.8 17.4-5.2 26.8-.9 6.2 2.3 12 7.8 14.1 5.3 2 10.8 0 14-5.1 2-3.2 3.5-6.8 4.8-10 9.8-25.2 21.5-48.5 35-69.3 7.9-12.2 19.8-29.9 33.9-43.7 4.3-4.2 19.3-13.4 22.1 2.5 1.8 10.2.6 80.5.9 95.8.1 8-1.4 29.1 14.3 36.1 19.6 8.7 64-36.1 78.9-95.1.4-1.6 4.1-13.8 4.1-13.8s-.7 50.6 3.8 70c.2.9 3.8 28.3 21.6 35.1 8.7 3.4 20.5 2.1 30.1-3 8-4.3 17.9-12.5 24-21.3 4.2-6-4.6-15.2-9.3-10.6-1.5 1.5-3.5 2.7-5.2 4-2.4 1.8-4.8 3.6-7.2 5.2-6.8 4.4-11.3 5.9-17.3 5.8-8.7-.3-14.3-8.7-15.9-23.6l-.1-.8c-1.5-14.1-1.8-17.1-.7-33.8 2.5-38 9.8-75.4 16.8-106.9 1.1-4.8 3.5-7.1 8.3-7.5 15.9-1.5 30.3-3.1 43.8-4.8 7.4-1 14.5-2.3 19.8-7.8 3.6-2.8 4.6-6.5 3.4-10.6zm-6.5 184.8c-9.5.8-10.8 10.3-10.7 15.9 0 4.3 1.6 8.1 4.3 10.5 2.4 2.2 5.5 3.1 9 2.8 3.9-.3 7.4-2.2 10-5.2 2.5-3 3.7-6.8 3.4-10.7-.3-3.9-2.2-7.4-5.2-10-3.1-2.4-6.9-3.6-10.8-3.3z"/>
  </g>
</svg>