<svg xmlns="http://www.w3.org/2000/svg" width="27.52" height="27.53" viewBox="0 0 27.52 27.53">
  <path d="M13.77 6.69a7.07 7.07 0 1 0 7.06 7.07 7.07 7.07 0 0 0-7.06-7.07Zm0 11.65a4.59 4.59 0 1 1 4.58-4.58 4.58 4.58 0 0 1-4.58 4.58Z" data-name="Path 19"/>
  <path d="M19.44.09C16.9 0 10.64 0 8.1.09a8.23 8.23 0 0 0-5.78 2.22C-.32 5 0 8.53 0 13.76s-.28 8.83 2.32 11.44 6.28 2.31 11.45 2.31 7.13 0 9-.72a7.53 7.53 0 0 0 4.66-7.36c.12-2.54.11-8.8 0-11.34a7.59 7.59 0 0 0-7.15-8 6 6 0 0 0-.85 0Zm4 23.36C21.7 25.19 19.29 25 13.72 25c-5.73 0-8 .08-9.71-1.6-1.93-1.92-1.58-5-1.58-9.69 0-6.34-.64-10.9 5.72-11.23 1.46 0 1.89-.07 5.57-.07 6.11 0 10.91-.64 11.2 5.72.07 1.45.08 1.88.08 5.55 0 5.67.11 8-1.6 9.7Z" data-name="Path 20"/>
  <circle cx="21.11" cy="6.42" r="1.65" data-name="Ellipse 44"/>
</svg>