<svg xmlns="http://www.w3.org/2000/svg" width="27.52" height="22.36" viewBox="0 0 27.52 22.36">
  <path d="M24.7 5.58a11.23 11.23 0 0 0 2.82-2.93 11.79 11.79 0 0 1-3.25.89A5.63 5.63 0 0 0 26.76.42a11.3 11.3 0 0 1-3.58 1.37 5.64 5.64 0 0 0-9.76 3.85 5.54 5.54 0 0 0 .13 1.29A16 16 0 0 1 1.92 1a5.64 5.64 0 0 0 1.73 7.57 5.57 5.57 0 0 1-2.55-.7v.07a5.66 5.66 0 0 0 4.52 5.54 5.67 5.67 0 0 1-1.48.19 5.46 5.46 0 0 1-1.07-.1 5.69 5.69 0 0 0 5.28 3.93 11.39 11.39 0 0 1-7 2.4A10.18 10.18 0 0 1 0 19.83a15.92 15.92 0 0 0 8.66 2.53A16 16 0 0 0 24.72 6.53c0-.32-.01-.64-.02-.95Z" data-name="twitter"/>
</svg>